# AST/ASF file generated using VICON BodyLanguage
# -----------------------------------------------
:version 1.10
:name VICON
:units
  mass 1.0
  length 0.45
  angle deg
:documentation
   .ast/.asf automatically generated from VICON data using
   VICON BodyBuilder and BodyLanguage model FoxedUp or BRILLIANT.MOD
:root
   order TX TY TZ RX RY RZ
   axis XYZ
   position 0 0 0  
   orientation 0 0 0 
:bonedata
  begin
     id 1 
     name lhipjoint
     direction 0.734343 -0.627749 0.258209 
     length 2.5437 
     axis 0 0 0  XYZ
  end
  begin
     id 2 
     name lfemur
     direction 0.34202 -0.939693 0  
     length 6.7391  
     axis 0 0 20  XYZ
    dof rx ry rz
    limits (-160.0 20.0)
           (-70.0 70.0)
           (-60.0 70.0)
  end
  begin
     id 3 
     name ltibia
     direction 0.34202 -0.939693 0   
     length 7.21536   
     axis 0 0 20   XYZ
    dof rx
    limits (-10.0 170.0)
  end
  begin
     id 4 
     name lfoot
     direction 0.0489572 -0.134509 0.989702   
     length 1.61313   
     axis -90 7.62852e-016 20   XYZ
    dof rx rz
    limits (-45.0 90.0)
           (-70.0 20.0)
  end
  begin
     id 5 
     name ltoes
     direction 1.53451e-011 -4.21692e-011 1   
     length 0.823104   
     axis -90 7.62852e-016 20   XYZ
    dof rx
    limits (-90.0 20.0)
  end
  begin
     id 6 
     name rhipjoint
     direction -0.746398 -0.615468 0.253157   
     length 2.59446  
     axis 0 0 0  XYZ 
  end
  begin
     id 7 
     name rfemur
     direction -0.34202 -0.939693 0   
     length 6.7075   
     axis 0 0 -20   XYZ
    dof rx ry rz
    limits (-160.0 20.0)
           (-70.0 70.0)
           (-70.0 60.0)
  end
  begin
     id 8 
     name rtibia
     direction -0.34202 -0.939693 0   
     length 7.27262   
     axis 0 0 -20   XYZ
    dof rx
    limits (-10.0 170.0)
 end
 begin
     id 9 
     name rfoot
     direction -0.0455203 -0.125066 0.991104   
     length 1.91095  
     axis -90 -7.62852e-016 -20   XYZ
    dof rx rz
    limits (-45.0 90.0)
           (-20.0 70.0)
  end
  begin
     id 10 
     name rtoes
     direction -1.53601e-011 -4.21913e-011 1   
     length 0.969037   
     axis -90 -7.62852e-016 -20   XYZ
    dof rx
    limits (-90.0 20.0)
  end
  begin
     id 11 
     name lowerback
     direction 0.0181546 0.999122 -0.0377542   
     length 1.99916   
     axis 0 0 0   XYZ
    dof rx ry rz
    limits (-20.0 45.0)
           (-30.0 30.0)
           (-30.0 30.0)
  end
  begin
     id 12 
     name upperback
     direction 0.0203486 0.99589 0.0882534   
     length 1.951   
     axis 0 0 0   XYZ
    dof rx ry rz
    limits (-20.0 45.0)
           (-30.0 30.0)
           (-30.0 30.0)
  end
  begin
     id 13 
     name thorax
     direction 0.0131685 0.994241 0.106355   
     length 1.97461   
     axis 0 0 0   XYZ
    dof rx ry rz
    limits (-20.0 45.0)
           (-30.0 30.0)
           (-30.0 30.0)
  end
  begin
     id 14 
     name lowerneck
     direction -0.0281395 0.999325 0.023617   
     length 1.7959   
     axis 0 0 0   XYZ
    dof rx ry rz
    limits (-20.0 45.0)
           (-30.0 30.0)
           (-30.0 30.0)
  end
  begin
     id 15 
     name upperneck
     direction 0.0288721 0.991984 -0.123019   
     length 1.79917   
     axis 0 0 0   XYZ
    dof rx ry rz
    limits (-20.0 45.0)
           (-30.0 30.0)
           (-30.0 30.0)
  end
  begin
     id 16
     name head
     direction 0.0133797 0.998944 -0.0439492  
     length 1.80902  
     axis 0 0 0   XYZ
    dof rx ry rz
    limits (-20.0 45.0)
           (-30.0 30.0)
           (-30.0 30.0)
  end
  begin
     id 17 
     name lclavicle
     direction 0.919195 0.377107 0.113449  
     length 3.17815  
     axis 0 0 0   XYZ
    dof ry rz
    limits (-20.0 10.0)
           (0.0 20.0)
  end
  begin
     id 18 
     name lhumerus
     direction 1 -4.48959e-011 2.13129e-027   
     length 4.84137   
     axis 180 -30 -90   XYZ
    dof rx ry rz
    limits (-60.0 90.0)
           (-90.0 90.0)
           (-90.0 90.0)
  end
  begin
     id 19
     name lradius
     direction 1 -4.48957e-011 -6.30627e-028   
     length 3.2452   
     axis 180 -30 -90   XYZ
    dof rx
    limits (-10.0 170.0)
  end
  begin
     id 20
     name lwrist
     direction 1 -4.4901e-011 9.13299e-027   
     length 1.6226   
     axis -6.84618e-015 90 90   XYZ
    dof ry
    limits (-180.0 0.0)
 end
  begin
     id 21 
     name lhand
     direction 1 -4.48816e-011 1.82293e-026   
     length 0.521221   
     axis -1.16502e-014 90 90   XYZ
    dof rx rz
    limits (-90.0 90.0)
           (-45.0 45.0)
  end
  begin
     id 22 
     name lfingers
     direction 1 -4.49108e-011 3.65687e-026   
     length 0.420221   
     axis -2.33008e-014 90 90   XYZ
    dof rx
    limits (0.0 90.0)
  end
  begin
     id 23
     name lthumb
     direction 0.707107 -6.34943e-011 0.707107   
     length 0.603356   
     axis -90 45 5.69224e-014   XYZ
    dof rx rz
    limits (-45.0 45.0)
           (-45.0 45.0)
  end
  begin
     id 24 
     name rclavicle
     direction -0.90847 0.38596 0.160368   
     length 3.12973  
     axis 0 0 0   XYZ 
    dof ry rz
    limits (-10.0 20.0)
           (-20.0 0.0)
  end
  begin
     id 25 
     name rhumerus
     direction -1 -4.48974e-011 4.47268e-028  
     length 4.72284   
     axis 180 30 90   XYZ
    dof rx ry rz
    limits (-90.0 60.0)
           (-90.0 90.0)
           (-90.0 90.0)
  end
  begin
     id 26 
     name rradius
     direction -1 -4.48969e-011 3.43203e-027   
     length 3.23459   
     axis 180 30 90   XYZ
    dof rx
    limits (-10.0 170.0)
  end
  begin
     id 27 
     name rwrist
     direction -1 -4.48969e-011 9.12911e-027   
     length 1.6173   
     axis -6.84618e-015 -90 -90   XYZ
    dof ry
    limits (-180.0 0.0)
  end
  begin
     id 28
     name rhand
     direction -1 -4.49194e-011 1.83006e-026   
     length 0.307416   
     axis -1.16502e-014 -90 -90   XYZ
    dof rx rz
    limits (-90.0 90.0)
           (-45.0 45.0)
  end
  begin
     id 29
     name rfingers
     direction -1 -4.48423e-011 3.63103e-026   
     length 0.247847   
     axis -2.33008e-014 -90 -90   XYZ
    dof rx
    limits (0.0 90.0)
  end
  begin
     id 30
     name rthumb
     direction -0.707107 -6.34802e-011 0.707107   
     length 0.35586   
     axis -90 -45 -5.69224e-014   XYZ
    dof rx rz
    limits (-45.0 45.0)
           (-45.0 45.0)
  end
:hierarchy
  begin
    root lhipjoint rhipjoint lowerback
    lhipjoint lfemur
    lfemur ltibia
    ltibia lfoot
    lfoot ltoes
    rhipjoint rfemur
    rfemur rtibia
    rtibia rfoot
    rfoot rtoes
    lowerback upperback
    upperback thorax
    thorax lowerneck lclavicle rclavicle
    lowerneck upperneck
    upperneck head
    lclavicle lhumerus
    lhumerus lradius
    lradius lwrist
    lwrist lhand lthumb
    lhand lfingers
    rclavicle rhumerus
    rhumerus rradius
    rradius rwrist
    rwrist rhand rthumb
    rhand rfingers
  end

#!OML:ASF H:\Terrain\Patient Classification 1\Animal1\Tuesday\Animal1.ASF
:FULLY-SPECIFIED
:DEGREES
1178
root 5.57952 15.9046 -15.5932 -702.531 33.0933 15.0839
lowerback -4.26326 0.204816 -4.61888
upperback -7.24634 0.456118 1.42771
thorax -5.19686 0.55189 4.07224
lowerneck 12.3144 -0.00851376 -2.58395
upperneck 1.11935 0.198215 15.1972
head -1.74794 -0.283255 5.04325
rclavicle -1.98785e-015 6.36111e-015
rhumerus 24.9012 -4.42239 4.86981
rradius 41.2935
rwrist -35.0384
rhand 13.0511 17.6561
rfingers 7.12502
rthumb 38.0142 -8.13923
lclavicle -1.98785e-015 6.36111e-015
lhumerus -3.98552 3.94411 -1.30845
lradius 37.352
lwrist -31.3941
lhand 34.6575 31.7473
lfingers 7.12502
lthumb 57.8384 47.6129
rfemur -34.7547 0.905557 21.5845
rtibia 79.453
rfoot 14.5484 4.87443
rtoes -5.82904
lfemur -29.8344 -8.05405 -28.2805
ltibia 40.8746
lfoot -4.72003 -5.92675
ltoes -17.0565
1179
root 5.64317 15.8767 -15.5253 -702.738 31.8081 14.9065
lowerback -4.252 0.10933 -4.58286
upperback -7.27797 0.319943 1.33106
thorax -5.22033 0.47858 3.95113
lowerneck 12.1115 0.111489 -2.7205
upperneck 1.51685 0.275651 15.0431
head -1.60321 -0.218629 5.01035
rclavicle 1.09332e-014 -4.45278e-014
rhumerus 24.5542 -3.67997 5.64197
rradius 41.5482
rwrist -36.2717
rhand 12.4762 17.2015
rfingers 7.12502
rthumb 37.471 -8.73978
lclavicle 1.09332e-014 -4.45278e-014
lhumerus -3.61572 6.27051 -0.622457
lradius 37.0015
lwrist -33.4955
lhand 33.9767 30.222
lfingers 7.12502
lthumb 57.2423 46.6044
rfemur -36.3019 0.43975 21.5872
rtibia 80.4199
rfoot 12.927 2.81326
rtoes -0.194227
lfemur -29.5391 -7.48596 -28.4975
ltibia 41.3116
lfoot -5.26897 -5.2736
ltoes -16.3888
1180
root 5.70941 15.8603 -15.4528 -703.216 30.5629 14.4131
lowerback -4.11545 0.0228799 -4.20504
upperback -7.27442 0.190692 1.32174
thorax -5.27371 0.392802 3.72876
lowerneck 11.7013 0.21601 -2.90874
upperneck 2.06311 0.30673 14.8852
head -1.37721 -0.163662 4.98559
rclavicle -9.93923e-016 -2.22639e-014
rhumerus 24.3201 -2.87646 6.49326
rradius 41.882
rwrist -38.0197
rhand 10.4424 16.6245
rfingers 7.12502
rthumb 35.5458 -9.80231
lclavicle -9.93923e-016 -2.22639e-014
lhumerus -3.4651 8.33163 0.0568333
lradius 36.8943
lwrist -35.2611
lhand 32.9851 29.3346
lfingers 7.12502
lthumb 56.3688 46.4347
rfemur -37.6617 0.1099 21.9354
rtibia 81.0022
rfoot 11.0463 1.9893
rtoes 2.53176
lfemur -29.0285 -6.73434 -28.4529
ltibia 41.6377
lfoot -5.86865 -4.73738
ltoes -14.8558
1181
root 5.77941 15.85 -15.3768 -703.618 29.1784 14.1524
lowerback -4.02958 0.047903 -4.00055
upperback -7.20504 0.21077 1.2152
thorax -5.24576 0.384414 3.50176
lowerneck 11.6804 0.348252 -3.10831
upperneck 2.03407 0.453518 14.8797
head -1.3965 -0.0955519 5.01067
rclavicle 4.83047e-014 2.70347e-014
rhumerus 24.8712 -4.97357 4.37043
rradius 40.9734
rwrist -35.238
rhand 9.05212 16.8888
rfingers 7.12502
rthumb 34.2268 -9.84438
lclavicle 4.83047e-014 2.70347e-014
lhumerus -3.21351 9.38912 0.490786
lradius 37.0595
lwrist -35.5435
lhand 31.7663 28.79
lfingers 7.12502
lthumb 55.2875 46.7186
rfemur -39.0618 -0.178096 21.992
rtibia 81.3272
rfoot 9.44314 1.51223
rtoes 8.27103
lfemur -28.3718 -5.87985 -28.7321
ltibia 41.9174
lfoot -6.72293 -3.83667
ltoes -16.6913
1182
root 5.84927 15.8297 -15.2949 -703.842 27.641 14.2598
lowerback -4.02795 0.0727099 -4.10436
upperback -7.12987 0.231337 0.985855
thorax -5.16775 0.387688 3.32033
lowerneck 11.7644 0.492501 -3.22934
upperneck 1.90721 0.635138 14.7317
head -1.4624 -0.0150458 4.97738
rclavicle 3.04141e-014 -2.70347e-014
rhumerus 24.4984 -4.60107 4.7333
rradius 40.9597
rwrist -35.0407
rhand 8.13397 17.5909
rfingers 7.12502
rthumb 33.3544 -9.33384
lclavicle 3.04141e-014 -2.70347e-014
lhumerus -2.89491 10.7037 1.02017
lradius 37.2038
lwrist -35.734
lhand 31.1465 28.3246
lfingers 7.12502
lthumb 54.7347 46.6535
rfemur -40.484 -0.542866 21.6832
rtibia 81.5742
rfoot 7.789 1.46525
rtoes 14.0979
lfemur -27.7086 -4.97914 -29.4317
ltibia 42.2685
lfoot -7.71668 -2.56969
ltoes -20.9911
1183
root 5.90706 15.8037 -15.2188 -704.245 26.1088 13.8368
lowerback -3.88694 0.0834941 -3.72731
upperback -7.24603 0.227642 0.824795
thorax -5.36354 0.365918 2.93993
lowerneck 12.1232 0.585376 -3.10285
upperneck 1.82701 0.771252 14.3363
head -1.54926 0.0420122 4.82911
rclavicle 2.20651e-014 -9.54166e-015
rhumerus 24.5693 -5.09534 3.87895
rradius 40.2681
rwrist -33.5294
rhand 8.7048 18.6998
rfingers 7.12502
rthumb 33.8969 -8.10681
lclavicle 2.20651e-014 -9.54166e-015
lhumerus -2.68773 11.9912 1.415
lradius 37.3211
lwrist -35.767
lhand 30.6428 28.4745
lfingers 7.12502
lthumb 54.2839 47.1187
rfemur -41.9485 -0.637254 22.0463
rtibia 81.5964
rfoot 6.267 1.19626
rtoes 16.0626
lfemur -27.2907 -4.01912 -29.5487
ltibia 42.7157
lfoot -8.38296 -1.41679
ltoes -22.3252
1184
root 5.94862 15.7752 -15.1636 -704.683 24.6657 12.9246
lowerback -3.72472 0.143246 -3.18824
upperback -7.64481 0.302424 0.910857
thorax -5.88057 0.392959 2.72567
lowerneck 13.7054 0.704925 -2.80683
upperneck 1.19777 1.03941 13.8354
head -2.00158 0.103602 4.62245
rclavicle -2.98177e-014 -9.54166e-015
rhumerus 24.1507 -3.71588 4.57826
rradius 40.7209
rwrist -34.8337
rhand 7.90837 17.5292
rfingers 7.12502
rthumb 33.1399 -9.44138
lclavicle -2.98177e-014 -9.54166e-015
lhumerus -2.25852 13.2583 2.13714
lradius 37.1735
lwrist -35.8715
lhand 30.0355 28.5167
lfingers 7.12502
lthumb 53.7389 47.5298
rfemur -43.6842 -0.493223 23.0737
rtibia 81.4684
rfoot 5.35018 -0.0288171
rtoes 16.7241
lfemur -27.3514 -3.1099 -29.0572
ltibia 43.3569
lfoot -8.78888 -0.540003
ltoes -20.228
1185
root 5.9981 15.7513 -15.1021 -704.772 23.2213 12.7745
lowerback -3.92398 0.0478185 -3.48328
upperback -7.11665 0.185367 1.14614
thorax -5.20087 0.332781 3.13891
lowerneck 12.0099 0.913564 -3.32051
upperneck 1.42457 1.18248 13.5265
head -1.67309 0.244852 4.59344
rclavicle 3.91606e-014 6.36111e-015
rhumerus 25.0862 -5.83937 3.7894
rradius 39.8404
rwrist -33.6343
rhand 8.65482 16.9768
rfingers 7.12502
rthumb 33.8494 -9.84028
lclavicle 3.91606e-014 6.36111e-015
lhumerus -2.19049 16.0972 3.11398
lradius 37.0677
lwrist -35.8209
lhand 29.9098 28.6032
lfingers 7.12502
lthumb 53.6258 47.6911
rfemur -45.2937 -0.665158 23.3278
rtibia 81.2727
rfoot 4.54321 -1.67367
rtoes 17.7586
lfemur -27.268 -2.48124 -29.2836
ltibia 43.9344
lfoot -9.33048 0.288641
ltoes -16.925
1186
root 6.05827 15.7049 -15.027 -704.741 21.7352 13.0074
lowerback -4.13051 0.0406646 -3.81854
upperback -6.9665 0.174981 0.955741
thorax -4.92648 0.32885 3.12912
lowerneck 11.6324 1.01177 -3.33446
upperneck 1.37873 1.30038 13.2354
head -1.63091 0.318875 4.49803
rclavicle 4.55217e-014 4.13472e-014
rhumerus 25.1021 -6.45059 3.68544
rradius 39.3429
rwrist -33.2686
rhand 10.1141 16.903
rfingers 7.12502
rthumb 35.2345 -9.598
lclavicle 4.55217e-014 4.13472e-014
lhumerus -2.04701 17.0665 3.6379
lradius 37.5839
lwrist -34.8688
lhand 29.8113 29.2788
lfingers 7.12502
lthumb 53.5372 48.425
rfemur -46.801 -0.962482 23.1655
rtibia 81.0368
rfoot 3.26841 -3.0879
rtoes 14.349
lfemur -26.9767 -1.90531 -29.9475
ltibia 44.3938
lfoot -9.97651 1.22577
ltoes -15.5967
1187
root 6.11058 15.6927 -14.9451 -704.936 20.3514 12.9462
lowerback -3.74345 -0.0392658 -3.65687
upperback -7.21967 0.0358839 0.669051
thorax -5.39992 0.255117 2.74012
lowerneck 11.9171 1.16071 -3.04753
upperneck 1.39247 1.52272 12.8897
head -1.68252 0.427232 4.33289
rclavicle -7.35503e-015 -1.27222e-014
rhumerus 23.5502 -3.25643 6.2446
rradius 41.2865
rwrist -37.218
rhand 10.282 15.2495
rfingers 7.12502
rthumb 35.3937 -11.2137
lclavicle -7.35503e-015 -1.27222e-014
lhumerus -2.17616 17.2114 3.59899
lradius 38.1695
lwrist -33.8519
lhand 29.9241 29.4505
lfingers 7.12502
lthumb 53.6387 48.53
rfemur -47.9747 -1.2288 23.3746
rtibia 80.3814
rfoot 2.21368 -4.79232
rtoes 8.52233
lfemur -26.4337 -1.11999 -30.3145
ltibia 44.5271
lfoot -10.2864 1.68524
ltoes -14.3001
1188
root 6.16029 15.6892 -14.8577 -705.302 19.1155 12.9093
lowerback -3.27318 -0.201785 -3.5619
upperback -7.32546 -0.212832 0.495926
thorax -5.76064 0.127139 2.51092
lowerneck 11.8777 1.35559 -3.3036
upperneck 1.51586 1.73103 12.9008
head -1.65933 0.532784 4.36815
rclavicle -6.55989e-015 3.49861e-014
rhumerus 23.7079 -3.24784 5.81989
rradius 40.9049
rwrist -36.7453
rhand 10.1608 15.5656
rfingers 7.12502
rthumb 35.2789 -10.9249
lclavicle -6.55989e-015 3.49861e-014
lhumerus -2.25589 18.0426 3.74152
lradius 38.3872
lwrist -33.443
lhand 30.2974 28.6624
lfingers 7.12502
lthumb 53.9742 47.5179
rfemur -48.8353 -1.54871 23.5631
rtibia 79.5444
rfoot 1.58005 -7.45625
rtoes 11.4674
lfemur -25.6337 -0.369943 -30.6619
ltibia 44.4999
lfoot -10.4308 1.96327
ltoes -13.1924
